<svg xmlns="http://www.w3.org/2000/svg" width="1024" height="1024" viewBox="0 0 1024 1024">
  <defs>
    <linearGradient id="bg2" x1="0" y1="0" x2="1" y2="1">
      <stop offset="0%" stop-color="#0b1220"/>
      <stop offset="100%" stop-color="#1a2332"/>
    </linearGradient>
  </defs>
  <rect width="1024" height="1024" rx="230" fill="url(#bg2)"/>
  <path d="M512 170c-176 0-318 142-318 318 0 232 318 396 318 396s318-164 318-396c0-176-142-318-318-318z" fill="#102436" stroke="#7ddbca" stroke-width="24"/>
  <circle cx="512" cy="470" r="180" fill="#7ddbca"/>
  <g transform="translate(512 470) rotate(-18) translate(-512 -470)">
    <rect x="462" y="350" width="100" height="225" rx="44" fill="#0b1220"/>
    <circle cx="512" cy="348" r="62" fill="#0b1220"/>
    <circle cx="512" cy="348" r="28" fill="#7ddbca"/>
  </g>
  <rect x="370" y="610" width="284" height="95" rx="44" fill="#b91c1c"/>
  <circle cx="425" cy="705" r="32" fill="#111827"/>
  <circle cx="598" cy="705" r="32" fill="#111827"/>
</svg>
